HIERARCHY
ROOT joint_Root
{
	OFFSET 0.0 0.0 0.0
	CHANNELS 6 Xposition Yposition Zposition Zrotation Xrotation Yrotation 
	JOINT Hips
	{
		OFFSET 4.5925 91.4895 -427.239
		CHANNELS 6 Xposition Yposition Zposition Zrotation Xrotation Yrotation 
		JOINT Spine
		{
			OFFSET 15.7357 0.0 0.0
			CHANNELS 6 Xposition Yposition Zposition Zrotation Xrotation Yrotation 
			JOINT Chest
			{
				OFFSET 8.98455 -0.406207 0.0
				CHANNELS 6 Xposition Yposition Zposition Zrotation Xrotation Yrotation 
				JOINT Neck
				{
					OFFSET 16.3773 0.0 0.0
					CHANNELS 6 Xposition Yposition Zposition Zrotation Xrotation Yrotation 
					JOINT Head
					{
						OFFSET 6.45672 0.0 0.0
						CHANNELS 6 Xposition Yposition Zposition Zrotation Xrotation Yrotation 
						End Site
						{
							OFFSET 0.0 0.0 0.0
						}
					}
				}
				JOINT Shoulder_L
				{
					OFFSET 12.9942 -0.242716 4.98039
					CHANNELS 6 Xposition Yposition Zposition Zrotation Xrotation Yrotation 
					JOINT UpperArm_L
					{
						OFFSET 5.34809 0.0 0.0
						CHANNELS 6 Xposition Yposition Zposition Zrotation Xrotation Yrotation 
						JOINT LowerArm_L
						{
							OFFSET 24.3286 1.87007e-05 0.0
							CHANNELS 6 Xposition Yposition Zposition Zrotation Xrotation Yrotation 
							JOINT Hand_L
							{
								OFFSET 22.2916 0.0 0.0
								CHANNELS 6 Xposition Yposition Zposition Zrotation Xrotation Yrotation 
								End Site
								{
									OFFSET 0.0 0.0 0.0
								}
							}
						}
					}
				}
				JOINT Shoulder_R
				{
					OFFSET 12.9945 -0.242716 -4.98039
					CHANNELS 6 Xposition Yposition Zposition Zrotation Xrotation Yrotation 
					JOINT UpperArm_R
					{
						OFFSET -5.34813 0.0 0.0
						CHANNELS 6 Xposition Yposition Zposition Zrotation Xrotation Yrotation 
						JOINT LowerArm_R
						{
							OFFSET -24.3289 0.000322201 0.0
							CHANNELS 6 Xposition Yposition Zposition Zrotation Xrotation Yrotation 
							JOINT Hand_R
							{
								OFFSET -22.2915 -0.000108084 0.0
								CHANNELS 6 Xposition Yposition Zposition Zrotation Xrotation Yrotation 
								End Site
								{
									OFFSET 0.0 0.0 0.0
								}
							}
						}
					}
				}
			}
		}
		JOINT UpperLeg_L
		{
			OFFSET -2.19248 -6.46944 0.0
			CHANNELS 6 Xposition Yposition Zposition Zrotation Xrotation Yrotation 
			JOINT LowerLeg_L
			{
				OFFSET 39.0811 0.0 -1.23785e-05
				CHANNELS 6 Xposition Yposition Zposition Zrotation Xrotation Yrotation 
				JOINT Foot_L
				{
					OFFSET 40.9854 0.0 -1.26872e-05
					CHANNELS 6 Xposition Yposition Zposition Zrotation Xrotation Yrotation 
					JOINT Toes_L
					{
						OFFSET 11.7543 0.0 0.0
						CHANNELS 6 Xposition Yposition Zposition Zrotation Xrotation Yrotation 
						End Site
						{
							OFFSET 0.0 0.0 0.0
						}
					}
				}
			}
		}
		JOINT UpperLeg_R
		{
			OFFSET -2.19251 6.46944 0.0
			CHANNELS 6 Xposition Yposition Zposition Zrotation Xrotation Yrotation 
			JOINT LowerLeg_R
			{
				OFFSET -39.0811 -0.00228153 -0.0401928
				CHANNELS 6 Xposition Yposition Zposition Zrotation Xrotation Yrotation 
				JOINT Foot_R
				{
					OFFSET -40.9854 0.0 0.0
					CHANNELS 6 Xposition Yposition Zposition Zrotation Xrotation Yrotation 
					JOINT Toes_R
					{
						OFFSET -11.7543 0.0 0.0
						CHANNELS 6 Xposition Yposition Zposition Zrotation Xrotation Yrotation 
						End Site
						{
							OFFSET 0.0 0.0 0.0
						}
					}
				}
			}
		}
	}
}
MOTION
Frames:	4
Frame Time:	0.0333333
0.000000 0.000000 0.000000 0.000000 0.000000 -0.000000 -4.251100 90.504400 1.426970 89.761500 -2.911510 11.128600 15.735700 0.000005 -0.000001 86.221200 80.786700 -85.674900 8.984550 -0.406207 -0.000000 10.628200 -1.192250 1.202920 16.377300 -0.000001 -0.000001 8.207520 -5.149420 1.877090 6.456720 -0.000001 -0.000000 4.060150 -5.986610 -1.765850 12.994200 -0.242716 4.980390 -91.510500 5.792290 -75.356900 5.348090 -0.000007 -0.000001 -61.073400 41.879300 -19.487600 24.328600 0.000019 0.000005 7.914560 20.308400 -21.828500 22.291600 -0.000001 0.000005 7.041000 5.272350 0.834640 12.994500 -0.242716 -4.980390 88.570700 11.292500 -82.738500 -5.348130 -0.000001 -0.000004 -61.492600 33.666200 -12.307500 -24.328900 0.000322 -0.000009 0.311214 0.909011 -18.959800 -22.291500 -0.000108 -0.000004 13.428800 5.380750 -2.321890 -2.192480 -6.469440 -0.000000 -171.604000 -12.471300 2.494940 39.081100 -0.000007 -0.000012 -0.257900 0.439660 30.395900 40.985400 -0.000006 -0.000013 -2.680480 5.412210 -70.742100 11.754300 -0.000000 0.000003 -0.000146 -0.001417 -16.631500 -2.192510 6.469440 -0.000001 174.550000 23.929600 -175.668000 -39.081100 -0.002282 -0.040193 -0.212102 0.368839 30.285400 -40.985400 0.000008 0.000006 5.956520 13.278900 -73.403100 -11.754300 -0.000006 -0.000006 -0.001391 -0.020812 -17.419400
0.000000 0.000000 0.000000 0.000000 0.000000 -0.000000 -4.291910 90.506300 1.318710 89.770400 -2.931790 11.300700 15.735700 0.000005 -0.000001 86.139400 80.717800 -85.533500 8.984550 -0.406207 -0.000000 10.764900 -1.225140 1.326470 16.377300 -0.000001 -0.000001 8.853130 -5.333610 1.989280 6.456720 -0.000001 -0.000000 4.673770 -6.301370 -1.397580 12.994200 -0.242716 4.980390 -91.536900 5.835420 -75.217000 5.348090 -0.000007 -0.000001 -60.840200 41.429200 -19.850500 24.328600 0.000019 0.000005 8.078610 20.530000 -22.034800 22.291600 -0.000001 0.000005 7.027060 5.274990 0.762785 12.994500 -0.242716 -4.980390 88.545200 11.314900 -82.624400 -5.348130 -0.000001 -0.000004 -61.402800 33.669900 -12.467700 -24.328900 0.000322 -0.000009 0.313748 0.915257 -18.981600 -22.291500 -0.000108 -0.000004 13.471500 5.378920 -2.264630 -2.192480 -6.469440 -0.000000 -171.570000 -12.443100 2.582320 39.081100 -0.000007 -0.000012 -0.255407 0.434991 30.420000 40.985400 -0.000006 -0.000013 -2.707200 5.379250 -70.676100 11.754300 -0.000000 0.000003 -0.000144 -0.001404 -16.631000 -2.192510 6.469440 -0.000001 174.518000 23.944200 -175.572000 -39.081100 -0.002282 -0.040193 -0.214010 0.371524 30.324500 -40.985400 0.000008 0.000006 6.007230 13.278900 -73.371200 -11.754300 -0.000006 -0.000006 -0.001457 -0.021702 -17.455600
0.000000 0.000000 0.000000 0.000000 0.000000 -0.000000 -4.331670 90.502000 1.206100 89.759300 -2.925620 11.505700 15.735700 0.000005 -0.000001 86.017400 80.647400 -85.363700 8.984550 -0.406207 -0.000000 10.903600 -1.271730 1.428100 16.377300 -0.000001 -0.000001 9.520780 -5.582560 2.155690 6.456720 -0.000001 -0.000000 5.229540 -6.640990 -1.064960 12.994200 -0.242716 4.980390 -91.555000 5.817130 -75.005900 5.348090 -0.000007 -0.000001 -60.587000 40.508900 -20.207900 24.328600 0.000019 0.000005 8.269140 20.563100 -22.478300 22.291600 -0.000001 0.000005 7.017680 5.278050 0.679422 12.994500 -0.242716 -4.980390 88.528000 11.299900 -82.528600 -5.348130 -0.000001 -0.000004 -61.364900 33.711700 -12.645300 -24.328900 0.000322 -0.000009 0.292918 0.854185 -18.992500 -22.291500 -0.000108 -0.000004 13.435400 5.381990 -2.360910 -2.192480 -6.469440 -0.000000 -171.514000 -12.341900 2.669880 39.081100 -0.000007 -0.000012 -0.258398 0.438931 30.485700 40.985400 -0.000006 -0.000013 -2.742690 5.333830 -70.625600 11.754300 -0.000000 0.000003 -0.000141 -0.001379 -16.630100 -2.192510 6.469440 -0.000001 174.507000 23.937400 -175.466000 -39.081100 -0.002282 -0.040193 -0.210307 0.364238 30.389900 -40.985400 0.000008 0.000006 6.070090 13.289800 -73.346800 -11.754300 -0.000006 -0.000006 -0.001312 -0.019750 -17.376200
0.000000 0.000000 0.000000 0.000000 0.000000 -0.000000 -4.376120 90.495300 1.084770 89.779400 -2.953580 11.617200 15.735700 0.000005 -0.000001 85.955900 80.619100 -85.260800 8.984550 -0.406207 -0.000000 10.959300 -1.294040 1.513540 16.377300 -0.000001 -0.000001 10.200800 -5.866060 2.231270 6.456720 -0.000001 -0.000000 5.735600 -7.061160 -0.801986 12.994200 -0.242716 4.980390 -91.569500 5.789590 -74.803700 5.348090 -0.000007 -0.000001 -60.020700 39.193400 -20.678800 24.328600 0.000019 0.000005 8.763510 20.846500 -23.421200 22.291600 -0.000001 0.000005 6.947640 5.290350 0.340923 12.994500 -0.242716 -4.980390 88.518900 11.220700 -82.431000 -5.348130 -0.000001 -0.000004 -61.404300 33.729900 -12.785900 -24.328900 0.000322 -0.000009 0.294549 0.854121 -19.091100 -22.291500 -0.000108 -0.000004 13.419600 5.382640 -2.381650 -2.192480 -6.469440 -0.000000 -171.492000 -12.336600 2.674280 39.081100 -0.000007 -0.000012 -0.258172 0.437453 30.548300 40.985400 -0.000006 -0.000013 -2.768850 5.320710 -70.573900 11.754300 -0.000000 0.000003 -0.000142 -0.001389 -16.630400 -2.192510 6.469440 -0.000001 174.546000 23.885300 -175.507000 -39.081100 -0.002282 -0.040193 -0.206281 0.355849 30.496800 -40.985400 0.000008 0.000006 6.114340 13.190500 -73.324700 -11.754300 -0.000006 -0.000006 -0.001319 -0.019839 -17.379900
